<svg width="20" height="24" fill="none" xmlns="http://www.w3.org/2000/svg"><path d="M9.995 0C4.485 0 0 4.317 0 9.62c0 .604.058 1.213.178 1.806a9.233 9.233 0 00.737 2.219c1.077 2.44 3.445 6.189 8.64 10.204a.727.727 0 00.89 0c5.19-4.015 7.563-7.764 8.64-10.204a9.132 9.132 0 00.737-2.219A9.534 9.534 0 0020 9.62C19.99 4.317 15.504 0 9.995 0zm8.426 11.19c0 .01-.005.02-.005.03-.005.025-.02.1-.047.216v.01a7.781 7.781 0 01-.58 1.64c-.005.006-.005.016-.01.02-.978 2.23-3.121 5.631-7.784 9.34-4.663-3.709-6.806-7.11-7.784-9.34-.005-.004-.005-.014-.01-.02a8.304 8.304 0 01-.58-1.64v-.01c-.032-.115-.042-.19-.048-.216 0-.01-.005-.02-.005-.035a7.918 7.918 0 01-.157-1.57c0-4.553 3.853-8.262 8.584-8.262 4.73 0 8.583 3.709 8.583 8.262a7.89 7.89 0 01-.157 1.575z" fill="#D92E30"/><path d="M10 4a6.01 6.01 0 00-6 6c0 3.306 2.694 6 6 6s6-2.694 6-6-2.694-6-6-6zm0 10.666A4.671 4.671 0 015.334 10 4.674 4.674 0 0110 5.334 4.674 4.674 0 0114.666 10 4.672 4.672 0 0110 14.666z" fill="#D92E30"/></svg>